<?xml version="1.0" encoding="iso-8859-1"?>
<!-- Generator: Adobe Illustrator 19.0.0, SVG Export Plug-In . SVG Version: 6.00 Build 0)  -->
<svg version="1.1" id="Layer_1" 
	xmlns="http://www.w3.org/2000/svg" 
	xmlns:xlink="http://www.w3.org/1999/xlink" x="0px" y="0px" viewBox="0 0 512 512" xml:space="preserve">
	<g>
		<g>
			<path d="M315.429,146.286h-4.937c8.722-9.719,14.08-22.51,14.08-36.571c0-30.254-24.603-54.857-54.857-54.857
			s-54.857,24.603-54.857,54.857c0,14.062,5.358,26.853,14.08,36.571H224c-25.207,0-45.714,20.507-45.714,45.714v128
			c0,5.047,4.087,9.143,9.143,9.143h27.429v173.714c0,5.047,4.087,9.143,9.143,9.143h45.714h9.143
			c25.207,0,45.714-20.507,45.714-45.714V329.143H352c5.056,0,9.143-4.096,9.143-9.143V192
			C361.143,166.793,340.635,146.286,315.429,146.286z M269.714,73.143c20.169,0,36.571,16.402,36.571,36.571
			s-16.402,36.571-36.571,36.571s-36.571-16.402-36.571-36.571S249.545,73.143,269.714,73.143z M275.319,164.571l-5.605,16.805
			l-5.605-16.805H275.319z M342.857,310.857h-18.286V192h-18.286v274.286c0,15.122-12.306,27.429-27.429,27.429V329.143h-18.286
			v164.571h-27.429V192h-18.286v118.857h-18.286V192c0-15.122,12.306-27.429,27.429-27.429h20.846l16.201,48.603
			c1.243,3.739,4.727,6.254,8.667,6.254s7.424-2.514,8.667-6.254l16.201-48.603h20.846c15.122,0,27.429,12.306,27.429,27.429
			V310.857z"/>
		</g>
	</g>
	<g>
		<g>
			<path d="M150.857,0H59.429c-5.056,0-9.143,4.096-9.143,9.143v493.714c0,5.047,4.087,9.143,9.143,9.143h91.429
			c5.056,0,9.143-4.096,9.143-9.143V9.143C160,4.096,155.913,0,150.857,0z M141.714,54.857h-18.286v18.286h18.286v36.571h-36.571
			V128h36.571v36.571h-18.286v18.286h18.286v36.571h-36.571v18.286h36.571v36.571h-18.286v18.286h18.286v36.571h-36.571v18.286
			h36.571V384h-18.286v18.286h18.286v36.571h-36.571v18.286h36.571v36.571H68.571V18.286h73.143V54.857z"/>
		</g>
	</g>
	<g>
		<g>
			<rect x="178.286" y="18.286" width="18.286" height="18.286"/>
		</g>
	</g>
	<g>
		<g>
			<rect x="214.857" y="18.286" width="18.286" height="18.286"/>
		</g>
	</g>
	<g>
		<g>
			<rect x="251.429" y="18.286" width="18.286" height="18.286"/>
		</g>
	</g>
	<g>
		<g>
			<rect x="288" y="18.286" width="18.286" height="18.286"/>
		</g>
	</g>
	<g>
		<g>
			<rect x="324.571" y="18.286" width="18.286" height="18.286"/>
		</g>
	</g>
	<g>
		<g>
			<rect x="361.143" y="18.286" width="18.286" height="18.286"/>
		</g>
	</g>
	<g>
		<g>
			<rect x="333.714" y="493.714" width="18.286" height="18.286"/>
		</g>
	</g>
	<g>
		<g>
			<rect x="370.286" y="493.714" width="18.286" height="18.286"/>
		</g>
	</g>
	<g>
		<g>
			<rect x="406.857" y="493.714" width="18.286" height="18.286"/>
		</g>
	</g>
	<g>
		<g>
			<rect x="443.429" y="493.714" width="18.286" height="18.286"/>
		</g>
	</g>
	<g>
	</g>
	<g>
	</g>
	<g>
	</g>
	<g>
	</g>
	<g>
	</g>
	<g>
	</g>
	<g>
	</g>
	<g>
	</g>
	<g>
	</g>
	<g>
	</g>
	<g>
	</g>
	<g>
	</g>
	<g>
	</g>
	<g>
	</g>
	<g>
	</g>
</svg>
