<svg viewBox="0 0 480 480" 
  xmlns="http://www.w3.org/2000/svg">
  <path d="m440 0h-400c-22.054688 0-40 17.945312-40 40v400c0 22.054688 17.945312 40 40 40h400c22.054688 0 40-17.945312 40-40v-400c0-22.054688-17.945312-40-40-40zm-136 16v144h-176v-144zm-264 448c-13.230469 0-24-10.769531-24-24v-400c0-13.230469 10.769531-24 24-24h72v152c0 4.414062 3.574219 8 8 8h192c4.425781 0 8-3.585938 8-8v-152h72c13.230469 0 24 10.769531 24 24v400c0 13.230469-10.769531 24-24 24zm424-24c0 13.230469-10.769531 24-24 24h-16.207031c5.078125-6.703125 8.207031-14.960938 8.207031-24v-400c0-9.039062-3.128906-17.296875-8.207031-24h16.207031c13.230469 0 24 10.769531 24 24zm0 0"/>
  <path d="m216.992188 112.105469-25.839844-51.679688-14.3125 7.160157 25.816406 51.621093c-1.671875 2.519531-2.65625 5.546875-2.65625 8.792969 0 8.824219 7.175781 16 16 16s16-7.175781 16-16c0-8.480469-6.65625-15.375-15.007812-15.894531zm0 0"/>
  <path d="m283.992188 66.34375 8.015624-13.839844c-23.144531-13.414062-49.433593-20.503906-76.007812-20.503906s-52.863281 7.089844-76.007812 20.496094l8.015624 13.839844c41.425782-23.992188 94.558594-23.992188 135.984376.007812zm0 0"/>
  <path d="m56 264h112c4.425781 0 8-3.585938 8-8v-48c0-4.414062-3.574219-8-8-8h-112c-4.425781 0-8 3.585938-8 8v48c0 4.414062 3.574219 8 8 8zm8-48h96v32h-96zm0 0"/>
  <path d="m176 352c0-4.414062-3.574219-8-8-8h-112c-4.425781 0-8 3.585938-8 8v48c0 4.414062 3.574219 8 8 8h112c4.425781 0 8-3.585938 8-8zm-16 40h-96v-32h96zm0 0"/>
  <path d="m376 200h-112c-4.425781 0-8 3.585938-8 8v48c0 4.414062 3.574219 8 8 8h112c4.425781 0 8-3.585938 8-8v-48c0-4.414062-3.574219-8-8-8zm-8 48h-96v-32h96zm0 0"/>
  <path d="m376 344h-112c-4.425781 0-8 3.585938-8 8v48c0 4.414062 3.574219 8 8 8h112c4.425781 0 8-3.585938 8-8v-48c0-4.414062-3.574219-8-8-8zm-8 48h-96v-32h96zm0 0"/>
  <path d="m176 432h16v16h-16zm0 0"/>
  <path d="m208 432h16v16h-16zm0 0"/>
  <path d="m240 432h16v16h-16zm0 0"/>
</svg>